<svg xmlns="http://www.w3.org/2000/svg" version="1.1" xmlns:xlink="http://www.w3.org/1999/xlink" xmlns:svgjs="http://svgjs.dev/svgjs" width="1000" height="623" viewBox="0 0 1000 623"><g transform="matrix(1,0,0,1,-0.6060606060606233,0.2522267206477977)"><svg viewBox="0 0 396 247" data-background-color="#010536" preserveAspectRatio="xMidYMid meet" height="623" width="1000" xmlns="http://www.w3.org/2000/svg" xmlns:xlink="http://www.w3.org/1999/xlink"><g id="tight-bounds" transform="matrix(1,0,0,1,0.2400000000000091,-0.09999999999999432)"><svg viewBox="0 0 395.52 247.2" height="247.2" width="395.52"><g><svg></svg></g><g><svg viewBox="0 0 395.52 247.2" height="247.2" width="395.52"><g transform="matrix(1,0,0,1,75.54432000000001,76.17165194966111)"><svg viewBox="0 0 244.43135999999996 94.85669610067775" height="94.85669610067775" width="244.43135999999996"><g><svg viewBox="0 0 244.43135999999996 94.85669610067775" height="94.85669610067775" width="244.43135999999996"><g><svg viewBox="0 0 342.22805069223375 132.8087451693619" height="94.85669610067775" width="244.43135999999996"><g><svg viewBox="0 0 244.43135999999998 132.8087451693619" height="132.8087451693619" width="244.43135999999998"><g id="textblocktransform"><svg viewBox="0 0 244.43135999999998 132.8087451693619" height="132.8087451693619" width="244.43135999999998" id="textblock"><g><svg viewBox="0 0 244.43135999999998 94.32301653803748" height="94.32301653803748" width="244.43135999999998"><g transform="matrix(1,0,0,1,0,0)"><svg width="244.43135999999998" viewBox="4.949999809265137 -35 90.69000244140625 35" height="94.32301653803748" data-palette-color="#fbfbf8"><path d="M8.85 0L8.85-1.5 22.65-1.5 16.6-18.1 19.4-19.7Q22.85-21.6 22.85-25.75L22.85-25.75Q22.85-33.5 11.05-33.5L11.05-33.5 6.45-33.5 6.45 0 4.95 0 4.95-35 11.05-35Q17.65-35 21-32.58 24.35-30.15 24.35-25.75L24.35-25.75Q24.35-20.75 20.15-18.4L20.15-18.4 18.45-17.45 24.8 0 8.85 0ZM34.9 0L34.9-1.5 51.2-1.5 40.95-25.65 30.05 0 28.45 0 40.95-29.5 53.45 0 34.9 0ZM63.85-0.05L63.85-1.5 83.15-1.5 83.15-26.9 71.9-15.65 60.65-26.9 60.65 0 59.15-0.05 59.15-29 60.65-29 71.9-17.75 83.15-29 84.65-29 84.65 0 63.85-0.05ZM94.14 0L94.14-29 95.64-29 95.64 0 94.14 0Z" opacity="1" transform="matrix(1,0,0,1,0,0)" fill="#fbfbf8" class="undefined-text-0" data-fill-palette-color="primary" id="text-0"></path></svg></g></svg></g><g transform="matrix(1,0,0,1,0,116.59041699027122)"><svg viewBox="0 0 244.43135999999998 16.218328179090697" height="16.218328179090697" width="244.43135999999998"><g transform="matrix(1,0,0,1,0,0)"><svg width="244.43135999999998" viewBox="5 -28.75 433.2699890136719 28.75" height="16.218328179090697" data-palette-color="#fbfbf8"><path d="M5-28.75L5-28.75 21.2-28.75 21.2-23.1 11.5-23.1 11.5-17.2 21.2-17.2 21.2-11.35 11.5-11.35 11.5 0 5 0 5-28.75ZM39.65-14.75L39.65-14.75 39.65-25.3 33.8-28.75 23.45-28.75 23.45-23.1 33.15-23.1 33.15-17.2 23.45-17.2 23.45-11.35 33.8-11.35 39.65-14.75ZM46.15-28.75L46.15-28.75 62.15-28.75 62.15-22.85 52.45-22.85 52.45-17.2 62.15-17.2 62.15-11.35 52.45-11.35 52.45 0 46.15 0 46.15-28.75ZM80.6 0L80.6 0 80.6-11.9 75.9-14.35 80.6-16.6 80.6-25.3 74.7-28.75 64.4-28.75 64.4-22.85 74.3-22.85 74.3-17.2 64.4-17.2 64.4-11.35 74.3-11.35 74.3 0 80.6 0ZM85.5-25.3L85.5-25.3 91.35-28.75 101.7-28.75 101.7-23.1 91.8-23.1 91.8-5.85 101.5-5.85 101.5 0 91.35 0 85.5-3.4 85.5-25.3ZM119.95-25.3L119.95-25.3 114.3-28.75 103.95-28.75 103.95-23.1 113.65-23.1 113.65-5.85 103.95-5.85 103.95 0 114.3 0 119.95-3.4 119.95-25.3ZM127.94-3.4L127.94-25.3 133.79-28.75 144.14-28.75 144.14-22.85 134.44-22.85 134.44-5.65 143.94-5.65 143.94 0 133.79 0 127.94-3.4ZM156.09-19.45L162.59-19.45 162.59-25.3 156.74-28.75 146.39-28.75 146.39-22.85 156.09-22.85 156.09-19.45ZM162.59-3.4L162.59-17.2 146.39-17.2 146.39-11.5 156.09-11.5 156.09-5.65 146.59-5.65 146.59 0 156.74 0 162.59-3.4ZM171.59-28.75L171.59-28.75 187.59-28.75 187.59-22.85 177.89-22.85 177.89-17.2 187.59-17.2 187.59-11.35 177.89-11.35 177.89 0 171.59 0 171.59-28.75ZM206.04 0L206.04 0 206.04-11.9 201.34-14.35 206.04-16.6 206.04-25.3 200.14-28.75 189.84-28.75 189.84-22.85 199.74-22.85 199.74-17.2 189.84-17.2 189.84-11.35 199.74-11.35 199.74 0 206.04 0ZM213.54-25.3L213.54-25.3 219.24-28.75 229.54-28.75 229.54-23.1 219.84-23.1 219.84-17.2 229.54-17.2 229.54-11.5 219.84-11.5 219.84 0 213.54 0 213.54-25.3ZM247.99-25.3L247.99-25.3 242.09-28.75 231.79-28.75 231.79-23.1 241.69-23.1 241.69-17.2 231.79-17.2 231.79-11.5 241.69-11.5 241.69 0 247.99 0 247.99-25.3ZM256.99-28.75L256.99-28.75 262.69-28.75 272.99-19.05 272.99-11.5 263.29-20.65 263.29 0 256.99 0 256.99-28.75ZM291.44-28.75L291.44-28.75 285.79-28.75 275.44-19.05 275.44-11.5 285.13-20.65 285.13 0 291.44 0 291.44-28.75ZM301.43-28.75L301.43-28.75 307.13-28.75 317.43-19.05 317.43-11.5 307.73-20.65 307.73 0 301.43 0 301.43-28.75ZM335.88-28.75L335.88-28.75 330.23-28.75 319.88-19.05 319.88-11.5 329.58-20.65 329.58 0 335.88 0 335.88-28.75ZM344.88-28.75L344.88-28.75 351.18-28.75 351.18 0 344.88 0 344.88-28.75ZM360.18 0L360.18-28.75 365.88-28.75 376.18-19.05 376.18-11.5 366.48-20.85 366.48 0 360.18 0ZM378.43-17.2L388.33-8.1 388.33-28.75 394.63-28.75 394.63 0 388.73 0 378.43-9.9 378.43-17.2ZM403.63-3.4L403.63-25.3 409.48-28.75 419.82-28.75 419.82-22.85 410.13-22.85 410.13-5.65 419.63-5.65 419.63 0 409.48 0 403.63-3.4ZM431.77-19.45L438.27-19.45 438.27-25.3 432.43-28.75 422.07-28.75 422.07-22.85 431.77-22.85 431.77-19.45ZM438.27-3.4L438.27-17.2 422.07-17.2 422.07-11.5 431.77-11.5 431.77-5.65 422.27-5.65 422.27 0 432.43 0 438.27-3.4Z" opacity="1" transform="matrix(1,0,0,1,0,0)" fill="#fbfbf8" class="undefined-text-1" data-fill-palette-color="secondary" id="text-1"></path></svg></g></svg></g></svg></g></svg></g><g transform="matrix(1,0,0,1,266.6987604522337,44.46311434620371)"><svg viewBox="0 0 75.52929024 43.882516476954486" height="43.882516476954486" width="75.52929024"><g><svg version="1.1" xmlns="http://www.w3.org/2000/svg" xmlns:xlink="http://www.w3.org/1999/xlink" x="0" y="0" viewBox="0 0 100 58.099998474121094" enable-background="new 0 0 100 58.1" xml:space="preserve" width="75.52929024" height="43.882516476954486" class="icon-icon-0" data-fill-palette-color="accent" id="icon-0"><path d="M69.987 1.618C69.919 0.714 69.172 0 68.25 0H1.75C0.828 0 0.081 0.714 0.013 1.618L0 46.55c0 0.967 0.783 1.75 1.75 1.75h66.5c0.967 0 1.75-0.783 1.75-1.75L69.987 1.618zM3 3.1h64v36.8H3V3.1z" fill="#ffffff" data-fill-palette-color="accent"></path><path d="M46.2 56.7c-2.8-0.7-3.5-2.801-3.5-5.601H27.3c0 2.8-0.7 4.9-3.5 5.601-0.679 0.169-0.7 1.399 0 1.399H35h11.2C46.9 58.1 46.879 56.869 46.2 56.7z" fill="#ffffff" data-fill-palette-color="accent"></path><path d="M97 0.1h-3H83h-3c-1.517 0-3 1.718-3 3v2 1 46 1 2c0 1.282 1.483 3 3 3h3 11 3c1.517 0 3-1.718 3-3v-2-1-46-1-2C100 1.817 98.517 0.1 97 0.1zM98.001 55.083C97.961 55.394 97.365 56.1 97 56.1h-3H83h-3c-0.365 0-0.961-0.706-1.001-1.017L79 53.1h19L98.001 55.083zM79 5.1l-0.001-1.983C79.039 2.806 79.635 2.1 80 2.1h3 11 3c0.365 0 0.961 0.706 1.001 1.017L98 5.1H79z" fill="#ffffff" data-fill-palette-color="accent"></path></svg></g></svg></g></svg></g></svg></g></svg></g><g><path d="M245.816 0c68.262 0 123.6 55.338 123.6 123.6 0 68.262-55.338 123.6-123.6 123.6-48.352 0-90.219-27.764-110.529-68.22l3.41 0c20.06 38.722 60.499 65.182 107.119 65.182 66.585 0 120.562-53.978 120.562-120.562 0-66.585-53.978-120.562-120.562-120.562-46.619 0-87.058 26.46-107.119 65.182h-3.41c20.31-40.455 62.177-68.22 110.529-68.22z" fill="#fbfbf8" stroke="transparent" data-fill-palette-color="tertiary"></path></g></svg></g><defs></defs></svg><rect width="395.52" height="247.2" fill="none" stroke="none" visibility="hidden"></rect></g></svg></g></svg>