<svg
    xmlns="http://www.w3.org/2000/svg"
    version="1.1"
    width="1000"
    height="623"
    viewBox="0 0 1000 623"
  >
    <g transform="matrix(1,0,0,1,-0.6060606060606233,0.2522267206477977)">
      <svg
        viewBox="0 0 396 247"
        data-background-color="#002142"
        preserveAspectRatio="xMidYMid meet"
        height="623"
        width="1000"
        xmlns="http://www.w3.org/2000/svg"
      >
        <g
          id="tight-bounds"
          transform="matrix(1,0,0,1,0.2400000000000091,-0.09999999999999432)"
        >
          <svg viewBox="0 0 395.52 247.2" height="247.2" width="395.52">
            <g>
              <svg></svg>
            </g>
            <g>
              <svg viewBox="0 0 395.52 247.2" height="247.2" width="395.52">
                <g transform="matrix(1,0,0,1,75.54432,70.22051449454545)">
                  <svg
                    viewBox="0 0 244.43135999999998 106.75897101090906"
                    height="106.75897101090906"
                    width="244.43135999999998"
                  >
                    <g>
                      <svg
                        viewBox="0 0 244.43135999999998 106.75897101090906"
                        height="106.75897101090906"
                        width="244.43135999999998"
                      >
                        <g>
                          <svg
                            viewBox="0 0 366.5200522359527 160.08299275336418"
                            height="106.75897101090906"
                            width="244.43135999999998"
                          >
                            <g transform="matrix(1,0,0,1,0,22.124349939140785)">
                              <svg
                                viewBox="0 0 244.43135999999998 115.83429287508261"
                                height="115.83429287508261"
                                width="244.43135999999998"
                              >
                                <g id="textblocktransform">
                                  <svg
                                    viewBox="0 0 244.43135999999998 115.83429287508261"
                                    height="115.83429287508261"
                                    width="244.43135999999998"
                                    id="textblock"
                                  >
                                    <g>
                                      <svg
                                        viewBox="0 0 244.43135999999998 115.83429287508261"
                                        height="115.83429287508261"
                                        width="244.43135999999998"
                                      >
                                        <g transform="matrix(1,0,0,1,0,0)">
                                          <svg
                                            width="244.43135999999998"
                                            viewBox="1.2999999523162842 -33.75 75.64999389648438 35.849998474121094"
                                            height="115.83429287508261"
                                            data-palette-color="#ffffff"
                                          >
                                            <path
                                              d="M25.05-11.85L25.05-11.85Q24.6-11.75 23.83-11.55 23.05-11.35 22.33-11.15 21.6-10.95 21.08-10.8 20.55-10.65 20.55-10.65L20.55-10.65 20.25-10.35 20.85-1.05 22.4-1.05Q23.3-1.05 24.1-0.98 24.9-0.9 24.9-0.2L24.9-0.2Q24.9 0.25 24.55 0.53 24.2 0.8 23.7 0.95 23.2 1.1 22.68 1.15 22.15 1.2 21.8 1.2L21.8 1.2Q18.35 1.2 14.98 0.83 11.6 0.45 8.15 0.45L8.15 0.45Q7.75 0.45 7.38 0.48 7 0.5 6.6 0.5L6.6 0.5Q5.95 0.2 5.95-0.45L5.95-0.45Q5.95-1.15 6.5-1.38 7.05-1.6 7.83-1.65 8.6-1.7 9.38-1.7 10.15-1.7 10.6-1.95L10.6-1.95Q10.6-2.2 10.63-2.9 10.65-3.6 10.65-3.85L10.65-3.85Q10.65-9.9 10.35-16.35 10.05-22.8 9.4-28.95L9.4-28.95Q9.35-29.05 9.25-29.4 9.15-29.75 9.1-29.85L9.1-29.85 8.95-29.9Q8.55-29.9 7.98-29.45 7.4-29 6.78-28.3 6.15-27.6 5.53-26.78 4.9-25.95 4.4-25.2L4.4-25.2Q3.75-24.3 3.63-23.23 3.5-22.15 3.5-21.05L3.5-21.05Q3.5-19.65 3.58-18.65 3.65-17.65 3.93-16.82 4.2-16 4.78-15.25 5.35-14.5 6.35-13.6L6.35-13.6Q6.35-13.2 5.85-12.9 5.35-12.6 5.05-12.5L5.05-12.5Q3.95-12.5 3.23-13.48 2.5-14.45 2.08-15.75 1.65-17.05 1.48-18.35 1.3-19.65 1.3-20.3L1.3-20.3Q1.3-23.7 2.65-26.63 4-29.55 6.9-31.45L6.9-31.45Q8.8-32.4 10.7-32.73 12.6-33.05 14.7-33.05L14.7-33.05Q17.4-33.05 20.48-32.63 23.55-32.2 26.18-30.9 28.8-29.6 30.55-27.18 32.3-24.75 32.3-20.7L32.3-20.7Q32.3-20.55 32.25-20.23 32.2-19.9 32.15-19.58 32.1-19.25 32.05-18.98 32-18.7 32-18.7L32-18.7 28.6-13.45 28.6-13.1Q30.1-12.55 31.03-11.48 31.95-10.4 32.45-9 32.95-7.6 33.13-6.05 33.3-4.5 33.3-3.1L33.3-3.1Q33.3-2.65 33.27-2.2 33.25-1.75 33.25-1.35L33.25-1.35Q33.5-1.1 33.88-0.75 34.25-0.4 34.35-0.4L34.35-0.4Q34.7-0.7 35.02-1.1 35.35-1.5 35.73-1.83 36.1-2.15 36.52-2.4 36.95-2.65 37.5-2.65L37.5-2.65Q37.75-2.65 37.98-2.63 38.2-2.6 38.2-2.2L38.2-2.2Q38.2-1.55 37.95-0.8 37.7-0.05 37.25 0.6 36.8 1.25 36.15 1.68 35.5 2.1 34.75 2.1L34.75 2.1Q33.9 2.1 33.38 1.8 32.85 1.5 32 0.8L32 0.8Q31.1 0.1 30.88-0.98 30.65-2.05 30.65-3.35L30.65-3.35Q30.65-3.6 30.68-3.83 30.7-4.05 30.7-4.3L30.7-4.3Q30.7-5.2 30.63-6.1 30.55-7 30.25-7.85 29.95-8.7 29.35-9.5 28.75-10.3 27.65-11L27.65-11Q27.15-11.3 26.43-11.58 25.7-11.85 25.05-11.85ZM13.45-1.95L13.45-1.95Q14.75-1.8 16.1-1.7 17.45-1.6 18.85-1.6L18.85-1.6Q18.85-1.85 18.82-2.48 18.8-3.1 18.78-3.8 18.75-4.5 18.73-5.15 18.7-5.8 18.7-6.05L18.7-6.05Q18.7-6.1 18.55-6.63 18.4-7.15 18.4-7.25L18.4-7.25Q18.1-11.6 18.05-15.93 18-20.25 17.45-24.6L17.45-24.6Q17.35-25.35 17.2-26.45 17.05-27.55 16.9-28.58 16.75-29.6 16.63-30.35 16.5-31.1 16.5-31.1L16.5-31.1 12.2-31.1 11.55-30.8Q11.55-30.7 11.53-30.13 11.5-29.55 11.48-28.8 11.45-28.05 11.45-27.25 11.45-26.45 11.45-26L11.45-26Q11.45-20.2 11.83-14.43 12.2-8.65 12.8-2.9L12.8-2.9Q13.05-2.75 13.2-2.48 13.35-2.2 13.45-1.95ZM20.25-14.05L20.25-14.05Q20.35-13.8 20.48-13.75 20.6-13.7 20.85-13.7L20.85-13.7Q24.35-13.7 26.75-15.33 29.15-16.95 30.15-20.25L30.15-20.25Q30.15-21.45 29.9-22.7 29.65-23.95 29.08-25.1 28.5-26.25 27.63-27.15 26.75-28.05 25.55-28.6L25.55-28.6Q24.95-28.85 24.03-29.23 23.1-29.6 22.23-29.95 21.35-30.3 20.68-30.55 20-30.8 19.95-30.8L19.95-30.8 18.95-30.8Q18.95-30.7 18.98-30.33 19-29.95 19-29.85L19-29.85Q19.3-25.95 19.45-21.95 19.6-17.95 20.25-14.05ZM39.6-1.6L39.6-1.6Q39.6-2.35 39.97-2.93 40.35-3.5 40.95-3.93 41.55-4.35 42.27-4.58 43-4.8 43.65-4.8L43.65-4.8Q44.9-4.8 45.52-3.95 46.15-3.1 46.15-1.95L46.15-1.95Q46.15-0.55 45.27 0.3 44.4 1.15 42.95 1.15L42.95 1.15Q42.4 1.15 41.8 0.95 41.2 0.75 40.72 0.38 40.25 0 39.92-0.5 39.6-1 39.6-1.6ZM50.65 1.35L50.65 1.35Q50.65 1.1 50.62 0.35 50.6-0.4 50.6-0.65L50.6-0.65Q50.6-1.65 50.62-2.43 50.65-3.2 50.7-3.98 50.75-4.75 50.82-5.63 50.9-6.5 51-7.65L51-7.65Q51.25-8.35 52.15-8.35L52.15-8.35Q52.95-8.35 53.55-7.58 54.15-6.8 54.7-5.75 55.25-4.7 55.8-3.65 56.35-2.6 57.1-2.05L57.1-2.05Q57.2-1.95 57.87-1.58 58.55-1.2 59.6-0.78 60.65-0.35 61.95 0 63.25 0.35 64.6 0.35L64.6 0.35Q65.95 0.35 67.05-0.13 68.15-0.6 68.9-1.4 69.65-2.2 70.05-3.3 70.45-4.4 70.45-5.65L70.45-5.65Q70.45-6.5 69.65-7.5 68.85-8.5 67.7-9.38 66.55-10.25 65.27-10.83 64-11.4 63.1-11.4L63.1-11.4Q62.85-11.4 62.52-11.23 62.2-11.05 61.85-10.83 61.5-10.6 61.17-10.43 60.85-10.25 60.65-10.25L60.65-10.25Q60.7-10.5 60.7-10.7 60.7-10.9 60.7-11.05L60.7-11.05Q60.7-11.75 60.5-12.15L60.5-12.15Q57.65-13.6 55.95-14.73 54.25-15.85 53.35-17.03 52.45-18.2 52.2-19.55 51.95-20.9 51.95-22.8L51.95-22.8Q51.95-24.3 52.3-26.28 52.65-28.25 53.65-29.95L53.65-29.95Q54.85-32 57.02-32.88 59.2-33.75 61.65-33.75L61.65-33.75Q63.05-33.75 64.25-33.5 65.45-33.25 66.55-32.8 67.65-32.35 68.75-31.7 69.85-31.05 71.1-30.25L71.1-30.25 71.5-30.25 74.15-33.4Q74.2-33.4 74.42-33.43 74.65-33.45 74.75-33.45L74.75-33.45Q75.2-33.45 75.62-33.35 76.05-33.25 76.2-32.75L76.2-32.75Q76.45-30.65 76.7-28.33 76.95-26 76.95-23.9L76.95-23.9Q76.95-23.65 76.75-23.48 76.55-23.3 76.25-23.23 75.95-23.15 75.62-23.13 75.3-23.1 75.1-23.1L75.1-23.1Q74.8-23.1 74.1-23.73 73.4-24.35 72.37-25.3 71.35-26.25 70.12-27.33 68.9-28.4 67.6-29.35 66.3-30.3 65.05-30.93 63.8-31.55 62.7-31.55L62.7-31.55Q61.55-31.55 60.37-31.35 59.2-31.15 58.25-30.65 57.3-30.15 56.7-29.3 56.1-28.45 56.1-27.15L56.1-27.15Q56.1-26.4 56.65-25.53 57.2-24.65 58.55-23.65 59.9-22.65 62.2-21.55 64.5-20.45 68-19.25L68-19.25Q68.1-19.35 68.4-19.78 68.7-20.2 69.05-20.68 69.4-21.15 69.75-21.53 70.1-21.9 70.25-21.9L70.25-21.9Q70.65-21.9 70.87-21.63 71.1-21.35 71.1-21L71.1-21Q71.1-20.85 70.97-20.55 70.85-20.25 70.65-19.9 70.45-19.55 70.27-19.23 70.1-18.9 70.05-18.7L70.05-18.7Q71.75-17.5 72.97-16.45 74.2-15.4 75-14.25 75.8-13.1 76.17-11.73 76.55-10.35 76.55-8.55L76.55-8.55Q76.55-6.4 75.6-4.5 74.65-2.6 72.95-1.15 71.25 0.3 68.85 1.15 66.45 2 63.6 2L63.6 2Q60.8 2 58.07 1.07 55.35 0.15 53.65-2.05L53.65-2.05Q53.65-2.05 53.55-2.1L53.55-2.1Q53.45-2.1 53.25-1.98 53.05-1.85 53.05-1.75L53.05-1.75 52.35 1.65Q52.3 1.9 52.1 1.95 51.9 2 51.65 2L51.65 2Q51.25 2 51.07 1.88 50.9 1.75 50.65 1.35ZM53.95-26.95L53.95-26.95Q53.95-26.75 53.95-26.08 53.95-25.4 53.92-24.6 53.9-23.8 53.9-23.1 53.9-22.4 53.9-22.2L53.9-22.2Q53.9-21.55 54.05-20.93 54.2-20.3 54.4-19.75L54.4-19.75Q54.65-18.95 55.12-18.1 55.6-17.25 56.92-16.28 58.25-15.3 60.7-14.18 63.15-13.05 67.35-11.75L67.35-11.75Q70.15-10.85 71.12-9.35 72.1-7.85 72.1-6L72.1-6Q72.1-4.15 71.4-2.15L71.4-2.15Q71.85-2.15 72.4-2.63 72.95-3.1 73.42-4.03 73.9-4.95 74.22-6.3 74.55-7.65 74.55-9.35L74.55-9.35Q74.55-11.9 73.15-13.6 71.75-15.3 69.6-16.53 67.45-17.75 64.9-18.7 62.35-19.65 60.07-20.75 57.8-21.85 56.1-23.3 54.4-24.75 53.95-26.95ZM72.25-28.4L72.25-28.4Q72.25-28.3 72.6-27.83 72.95-27.35 73.35-26.85 73.75-26.35 74.12-25.95 74.5-25.55 74.6-25.55L74.6-25.55 75-25.55Q75-25.55 74.9-26.1 74.8-26.65 74.67-27.38 74.55-28.1 74.4-28.83 74.25-29.55 74.15-29.95L74.15-29.95Q73.95-29.8 73.62-29.63 73.3-29.45 73-29.25 72.7-29.05 72.47-28.83 72.25-28.6 72.25-28.4Z"
                                              opacity="1"
                                              transform="matrix(1,0,0,1,0,0)"
                                              fill="#ffffff"
                                              className="wordmark-text-0"
                                              data-fill-palette-color="primary"
                                              id="text-0"
                                            ></path>
                                          </svg>
                                        </g>
                                      </svg>
                                    </g>
                                  </svg>
                                </g>
                              </svg>
                            </g>
                            <g transform="matrix(1,0,0,1,271.777056524778,0)">
                              <svg
                                viewBox="0 0 94.74299571117471 160.08299275336418"
                                height="160.08299275336418"
                                width="94.74299571117471"
                              >
                                <g>
                                  <svg
                                    xmlns="http://www.w3.org/2000/svg"
                                    version="1.1"
                                    x="0"
                                    y="0"
                                    viewBox="21.300003051757812 0.5 58 98"
                                    enable-background="new 0 0 100 100"
                                    height="160.08299275336418"
                                    width="94.74299571117471"
                                    className="icon-icon-0"
                                    data-fill-palette-color="accent"
                                    id="icon-0"
                                  >
                                    <path
                                      fill="#d5d5d5"
                                      d="M69.3 0.5h-38c-5.5 0-10 4.5-10 10v78c0 5.5 4.5 10 10 10h38c5.5 0 10-4.5 10-10v-78C79.3 5 74.8 0.5 69.3 0.5zM50 93.2c-2.7 0-5-2.2-5-5 0-2.7 2.2-5 5-5s5 2.2 5 5C55 91 52.7 93.2 50 93.2zM71.3 79.5h-42v-66h42V79.5z"
                                      data-fill-palette-color="accent"
                                    ></path>
                                  </svg>
                                </g>
                              </svg>
                            </g>
                          </svg>
                        </g>
                      </svg>
                    </g>
                  </svg>
                </g>
                <g>
                  <path
                    d="M245.816 0c68.262 0 123.6 55.338 123.6 123.6 0 68.262-55.338 123.6-123.6 123.6-45.461 0-85.189-24.543-106.658-61.102l4.06 0c21.093 34.553 59.152 57.619 102.598 57.619 66.339 0 120.117-53.778 120.116-120.117 0-66.339-53.778-120.117-120.116-120.117-43.446 0-81.504 23.066-102.598 57.619l-4.06 0c21.469-36.559 61.197-61.102 106.658-61.102z"
                    fill="#ffffff"
                    stroke="transparent"
                    data-fill-palette-color="tertiary"
                  ></path>
                </g>
              </svg>
            </g>
            <defs></defs>
          </svg>
          <rect
            width="395.52"
            height="247.2"
            fill="none"
            stroke="none"
            visibility="hidden"
          ></rect>
        </g>
      </svg>
    </g>
</svg>